<mxfile host="app.diagrams.net" modified="2024-03-11T05:38:09.911Z" agent="Mozilla/5.0 (X11; Linux x86_64) AppleWebKit/537.36 (KHTML, like Gecko) Chrome/121.0.0.0 Safari/537.36" version="24.0.4" etag="TyguNe_s-ZiV83gVlYzl" type="github">
  <diagram name="Page-1" id="9eiWbtMRZV7GjYfc5fma">
    <mxGraphModel>
      <root>
        <mxCell id="0" />
        <mxCell id="1" parent="0" />
      </root>
    </mxGraphModel>
  </diagram>
</mxfile>
